<mxfile host="www.draw.io" modified="2020-02-12T02:32:51.896Z" agent="Mozilla/5.0 (Windows NT 10.0; Win64; x64) AppleWebKit/537.36 (KHTML, like Gecko) Chrome/80.0.3987.100 Safari/537.36" etag="oniFZzsm_iia1xS5yC4S" version="12.6.7" type="github">
  <diagram id="KRCS7jv8708_Y_bWZBBr" name="第 1 页">
    <mxGraphModel dx="910" dy="523" grid="1" gridSize="10" guides="1" tooltips="1" connect="1" arrows="1" fold="1" page="1" pageScale="1" pageWidth="827" pageHeight="1169" math="0" shadow="0">
      <root>
        <mxCell id="0"/>
        <mxCell id="1" parent="0"/>
      </root>
    </mxGraphModel>
  </diagram>
</mxfile>
